<svg width="25" height="24" viewBox="0 0 25 24" fill="none" xmlns="http://www.w3.org/2000/svg">
<path d="M9.06521 12C9.06521 12.836 9.10261 13.6465 9.17213 14.42H15.5583C15.6278 13.6465 15.6652 12.836 15.6652 12C15.6652 11.164 15.6278 10.3535 15.5578 9.57998H9.17301C9.10261 10.3535 9.06521 11.164 9.06521 12ZM7.84773 9.57998C7.77886 10.3848 7.74466 11.1922 7.74521 12C7.74521 12.8298 7.78041 13.6399 7.84729 14.42H2.76309C2.56861 13.6456 2.46521 12.8347 2.46521 12C2.46521 11.1653 2.56861 10.3544 2.76309 9.57998H7.84773ZM9.32877 8.25998H15.4012C15.2058 6.9281 14.9102 5.74054 14.5436 4.76506C14.2009 3.85294 13.8093 3.15994 13.4085 2.70762C13.0067 2.25354 12.6521 2.09998 12.3652 2.09998C12.0783 2.09998 11.7237 2.25398 11.3215 2.70718C10.9207 3.16038 10.5291 3.85294 10.1863 4.76506C9.81981 5.74054 9.52413 6.9281 9.32833 8.25998M16.8827 9.57998C16.95 10.3601 16.9852 11.1701 16.9852 12C16.9852 12.8298 16.95 13.6399 16.8831 14.42H21.9673C22.1618 13.6456 22.2652 12.8347 22.2652 12C22.2652 11.1653 22.1618 10.3544 21.9673 9.57998H16.8827ZM21.5348 8.25998H16.7348C16.528 6.76926 16.2007 5.42198 15.7796 4.30086C15.5108 3.58542 15.1975 2.94478 14.8406 2.41194C17.8854 3.19602 20.3626 5.39206 21.5339 8.25998M7.99513 8.25998H3.19605C4.36689 5.39206 6.84453 3.19602 9.88933 2.41238C9.53293 2.94478 9.21921 3.58542 8.95037 4.30086C8.52929 5.42198 8.20237 6.76926 7.99557 8.25998M7.99425 15.74H3.19605C4.36645 18.6066 6.84189 20.8017 9.88405 21.5867C9.52765 21.0543 9.21525 20.4137 8.94685 19.6991C8.52665 18.5771 8.20017 17.2307 7.99425 15.74ZM14.5476 19.2353C14.9128 18.2599 15.2076 17.0723 15.403 15.74H9.32745C9.52237 17.0723 9.81717 18.2599 10.1828 19.2353C10.5251 20.1475 10.9163 20.84 11.318 21.2923C11.7193 21.7455 12.0748 21.9 12.3652 21.9C12.6556 21.9 13.0111 21.7455 13.4124 21.2923C13.8141 20.84 14.2053 20.1475 14.5476 19.2353ZM15.7836 19.6987C16.2038 18.5775 16.5302 17.2303 16.7362 15.74H21.5344C20.364 18.6066 17.8885 20.8017 14.8464 21.5867C15.2028 21.0543 15.5152 20.4132 15.7836 19.6987Z" fill="#6E757D"/>
</svg>
