<svg width="16" height="16" viewBox="0 0 16 16" fill="none" xmlns="http://www.w3.org/2000/svg">
<path d="M8.13647 1.15906C10.3302 1.15906 13.2466 2.71717 13.2468 6.76648C13.2468 10.4981 10.5599 12.9439 8.60913 14.4159C8.26177 14.6779 7.78191 14.673 7.43823 14.4061C5.5402 12.9324 2.75366 10.4197 2.75366 6.76648C2.75386 2.71726 5.94274 1.15915 8.13647 1.15906ZM7.99976 4.70203C6.97282 4.70216 6.14038 5.53541 6.14038 6.56238C6.1405 7.58924 6.97289 8.42162 7.99976 8.42175C9.02673 8.42175 9.85998 7.58933 9.86011 6.56238C9.86011 5.53533 9.02681 4.70203 7.99976 4.70203Z" fill="#A0AAB0"/>
</svg>
