<svg width="24" height="24" viewBox="0 0 24 24" fill="none" xmlns="http://www.w3.org/2000/svg">
<path d="M12.0001 8.78665C10.2207 8.78665 8.7861 10.235 8.7861 12.0006C8.7861 13.7663 10.2345 15.2147 12.0001 15.2147C13.7657 15.2147 15.2141 13.7663 15.2141 12.0006C15.2141 10.235 13.7657 8.78665 12.0001 8.78665ZM21.6559 12.0006C21.6559 10.6626 21.6559 9.3522 21.5869 8.01418C21.518 6.46926 21.1593 5.08985 20.0282 3.97254C18.8971 2.84143 17.5315 2.48279 15.9866 2.41382C14.6485 2.34485 13.3381 2.34485 12.0001 2.34485C10.6621 2.34485 9.35165 2.34485 8.01363 2.41382C6.46871 2.48279 5.08931 2.84143 3.97199 3.97254C2.84088 5.10365 2.48224 6.46926 2.41327 8.01418C2.3443 9.3522 2.3443 10.6626 2.3443 12.0006C2.3443 13.3387 2.3443 14.6491 2.41327 15.9871C2.48224 17.532 2.84088 18.9114 3.97199 20.0288C5.1031 21.1599 6.46871 21.5185 8.01363 21.5875C9.35165 21.6565 10.6621 21.6565 12.0001 21.6565C13.3381 21.6565 14.6485 21.6565 15.9866 21.5875C17.5315 21.5185 18.9109 21.1599 20.0282 20.0288C21.1593 18.8976 21.518 17.532 21.5869 15.9871C21.6697 14.6629 21.6559 13.3387 21.6559 12.0006ZM12.0001 16.9527C9.25509 16.9527 7.04805 14.7457 7.04805 12.0006C7.04805 9.25564 9.25509 7.0486 12.0001 7.0486C14.7451 7.0486 16.9521 9.25564 16.9521 12.0006C16.9521 14.7457 14.7451 16.9527 12.0001 16.9527ZM17.1591 8.00039C16.5245 8.00039 16.0004 7.49001 16.0004 6.84169C16.0004 6.19338 16.5107 5.683 17.1591 5.683C17.8074 5.683 18.3177 6.19338 18.3177 6.84169C18.3212 6.99279 18.2937 7.14299 18.2367 7.28298C18.1798 7.42298 18.0947 7.54979 17.9867 7.65554C17.8809 7.76351 17.7541 7.84861 17.6141 7.90555C17.4741 7.9625 17.3239 7.99009 17.1728 7.9866L17.1591 8.00039Z" fill="#6E757D"/>
</svg>
