<svg width="47" height="40" viewBox="0 0 47 40" fill="none" xmlns="http://www.w3.org/2000/svg">
<path fill-rule="evenodd" clip-rule="evenodd" d="M11.7164 7.92046C11.7157 6.88015 11.9202 5.8499 12.318 4.88865C12.7158 3.92739 13.2992 3.05399 14.0348 2.31837C14.7704 1.58276 15.6438 0.999366 16.6051 0.601561C17.5663 0.203755 18.5966 -0.000661226 19.6369 1.6068e-06H26.6145C27.6549 -0.000661226 28.6851 0.203755 29.6464 0.601561C30.6076 0.999366 31.481 1.58276 32.2166 2.31837C32.9522 3.05399 33.5356 3.92739 33.9334 4.88865C34.3312 5.8499 34.5357 6.88015 34.535 7.92046C34.5354 7.93845 34.5423 7.9557 34.5543 7.9691C34.5663 7.98249 34.5827 7.99117 34.6005 7.99356L40.222 8.44731C42.7403 8.65402 44.8099 10.5144 45.2813 12.9974C46.4783 19.3311 46.567 25.8245 45.5435 32.1885L45.299 33.7111C45.0746 35.1061 44.3889 36.3856 43.3515 37.3448C42.3141 38.3041 40.9849 38.8877 39.5767 39.0023L34.6787 39.3981C26.9894 40.0228 19.262 40.0228 11.5727 39.3981L6.67475 39.0023C5.26611 38.8876 3.93668 38.3036 2.89923 37.3439C1.86178 36.3841 1.17629 35.1041 0.952454 33.7086L0.707934 32.1885C-0.318046 25.8234 -0.227296 19.3323 0.9701 12.9974C1.19906 11.79 1.81807 10.6911 2.73207 9.86955C3.64606 9.048 4.80449 8.54923 6.02941 8.44984L11.6509 7.99356C11.6687 7.99117 11.6851 7.98249 11.6971 7.9691C11.7091 7.9557 11.716 7.93845 11.7164 7.92046ZM23.1257 11.974C20.6186 11.974 18.2141 12.9699 16.4413 14.7427C14.6685 16.5155 13.6726 18.92 13.6726 21.4271C13.6726 23.9342 14.6685 26.3387 16.4413 28.1115C18.2141 29.8843 20.6186 30.8802 23.1257 30.8802C25.6328 30.8802 28.0373 29.8843 29.8101 28.1115C31.5829 26.3387 32.5788 23.9342 32.5788 21.4271C32.5788 18.92 31.5829 16.5155 29.8101 14.7427C28.0373 12.9699 25.6328 11.974 23.1257 11.974Z" fill="#C9D1D9"/>
</svg>
