<svg width="24" height="24" viewBox="0 0 24 24" fill="none" xmlns="http://www.w3.org/2000/svg">
<path d="M17.54 4.90975C17.315 4.68468 17.0479 4.50615 16.754 4.38436C16.46 4.26258 16.1449 4.19994 15.8266 4.20001C15.5084 4.20009 15.1933 4.26288 14.8994 4.3848C14.6055 4.50672 14.3384 4.68537 14.1136 4.91055L6.508 12.5266C6.05483 12.9808 5.80023 13.5961 5.8 14.2378V16.8002C5.8 17.1314 6.0688 17.4002 6.4 17.4002H8.9784C9.6208 17.4002 10.2368 17.1442 10.6904 16.6906L18.2904 9.08575C18.7438 8.63133 18.9983 8.01565 18.9983 7.37375C18.9983 6.73186 18.7438 6.11618 18.2904 5.66175L17.54 4.90975ZM5.6 18.6002C5.44087 18.6002 5.28826 18.6634 5.17574 18.7759C5.06321 18.8884 5 19.041 5 19.2002C5 19.3593 5.06321 19.5119 5.17574 19.6244C5.28826 19.7369 5.44087 19.8002 5.6 19.8002H18.4C18.5591 19.8002 18.7117 19.7369 18.8243 19.6244C18.9368 19.5119 19 19.3593 19 19.2002C19 19.041 18.9368 18.8884 18.8243 18.7759C18.7117 18.6634 18.5591 18.6002 18.4 18.6002H5.6Z" fill="#A0AAB0"/>
</svg>
