<svg width="19" height="19" viewBox="0 0 19 19" fill="none" xmlns="http://www.w3.org/2000/svg">
<path fill-rule="evenodd" clip-rule="evenodd" d="M16.9166 9.44566C16.9166 8.87905 16.8658 8.33426 16.7713 7.81131H9.24609V10.902H13.5462C13.361 11.9008 12.7981 12.747 11.9518 13.3136V15.3184H14.5341C16.045 13.9274 16.9166 11.879 16.9166 9.44566Z" fill="#4285F4"/>
<path fill-rule="evenodd" clip-rule="evenodd" d="M9.24626 17.254C11.4036 17.254 13.2122 16.5385 14.5343 15.3182L11.952 13.3134C11.2365 13.7928 10.3212 14.0761 9.24626 14.0761C7.16517 14.0761 5.40371 12.6706 4.77539 10.782H2.10596V12.8522C3.4207 15.4635 6.12282 17.254 9.24626 17.254Z" fill="#34A853"/>
<path fill-rule="evenodd" clip-rule="evenodd" d="M4.77515 10.782C4.61535 10.3026 4.52455 9.79047 4.52455 9.26389C4.52455 8.73724 4.61535 8.22517 4.77515 7.74574V5.67556H2.10572C1.56457 6.75423 1.25586 7.97456 1.25586 9.26389C1.25586 10.5531 1.56457 11.7735 2.10572 12.8522L4.77515 10.782Z" fill="#FBBC05"/>
<path fill-rule="evenodd" clip-rule="evenodd" d="M9.24626 4.45189C10.4193 4.45189 11.4726 4.85503 12.3006 5.64679L14.5924 3.35507C13.2086 2.06575 11.3999 1.274 9.24626 1.274C6.12282 1.274 3.4207 3.06452 2.10596 5.67583L4.77539 7.74601C5.40371 5.85743 7.16517 4.45189 9.24626 4.45189Z" fill="#EA4335"/>
</svg>
