<svg width="16" height="16" viewBox="0 0 16 16" fill="none" xmlns="http://www.w3.org/2000/svg">
<path d="M6.21787 8.59412C6.44499 9.00139 6.76482 9.34947 7.15146 9.61016C7.53811 9.87085 7.98071 10.0368 8.44343 10.0947C8.90615 10.1525 9.37599 10.1006 9.81491 9.94309C10.2538 9.78559 10.6495 9.52696 10.9699 9.18812L13.3459 6.81212C13.8973 6.26073 14.207 5.51289 14.207 4.73312C14.207 3.95334 13.8973 3.2055 13.3459 2.65412C12.7945 2.10273 12.0467 1.79297 11.2669 1.79297C10.4871 1.79297 9.73926 2.10273 9.18787 2.65412L7.99987 3.84212M9.78187 7.40612C9.55476 6.99884 9.23493 6.65077 8.84828 6.39008C8.46164 6.12939 8.01904 5.9634 7.55632 5.90556C7.0936 5.84772 6.62376 5.89965 6.18484 6.05715C5.74592 6.21464 5.35026 6.47328 5.02987 6.81212L2.65387 9.18812C2.10249 9.7395 1.79272 10.4873 1.79272 11.2671C1.79272 12.0469 2.10249 12.7947 2.65387 13.3461C3.20526 13.8975 3.9531 14.2073 4.73287 14.2073C5.51265 14.2073 6.26049 13.8975 6.81187 13.3461L7.99987 12.1581" stroke="#A0AAB0" stroke-width="1.5" stroke-linecap="round" stroke-linejoin="round"/>
</svg>
