<svg width="14" height="16" viewBox="0 0 14 16" fill="none" xmlns="http://www.w3.org/2000/svg">
<path d="M12.54 0.709741C12.315 0.484666 12.0479 0.306135 11.754 0.184353C11.46 0.0625704 11.1449 -7.42315e-05 10.8266 6.60109e-08C10.5084 7.43635e-05 10.1933 0.0628661 9.8994 0.184786C9.60547 0.306705 9.33845 0.485361 9.1136 0.710541L1.508 8.32654C1.05483 8.78076 0.800225 9.39612 0.8 10.0377V12.6001C0.8 12.9313 1.0688 13.2001 1.4 13.2001H3.9784C4.6208 13.2001 5.2368 12.9441 5.6904 12.4905L13.2904 4.88574C13.7438 4.43132 13.9983 3.81563 13.9983 3.17374C13.9983 2.53185 13.7438 1.91616 13.2904 1.46174L12.54 0.709741ZM0.6 14.4001C0.44087 14.4001 0.288258 14.4634 0.175736 14.5759C0.063214 14.6884 0 14.841 0 15.0001C0 15.1593 0.063214 15.3119 0.175736 15.4244C0.288258 15.5369 0.44087 15.6001 0.6 15.6001H13.4C13.5591 15.6001 13.7117 15.5369 13.8243 15.4244C13.9368 15.3119 14 15.1593 14 15.0001C14 14.841 13.9368 14.6884 13.8243 14.5759C13.7117 14.4634 13.5591 14.4001 13.4 14.4001H0.6Z" fill="#A0AAB0"/>
</svg>
