<svg width="100" height="24" viewBox="0 0 100 24" fill="none" xmlns="http://www.w3.org/2000/svg">
<path d="M36.2382 17.1986C38.6769 17.2122 40.4247 15.2477 40.4382 12.4567C40.4247 9.66575 38.6769 7.70125 36.2382 7.7148C33.7454 7.70125 32.0112 9.6793 32.0383 12.4567C32.0112 15.2341 33.7454 17.2122 36.2382 17.1986ZM43.1208 18.8696C43.1208 19.1888 42.862 19.4476 42.5427 19.4476H40.9079C40.5886 19.4476 40.3298 19.1888 40.3298 18.8696V17.4025C40.3298 17.3647 40.2992 17.3341 40.2615 17.3341C40.2367 17.3341 40.2139 17.3476 40.2016 17.3691C39.2787 18.9856 37.7821 19.827 35.8047 19.827C31.9299 19.827 29.166 16.6567 29.1931 12.4567C29.166 8.25673 31.9299 5.08643 35.8047 5.08643C37.7687 5.08643 39.2652 5.91452 40.2014 7.51767C40.2138 7.53889 40.2366 7.55222 40.2612 7.55222C40.2991 7.55222 40.3298 7.52148 40.3298 7.48355V6.04384C40.3298 5.72459 40.5886 5.46578 40.9079 5.46578H42.5427C42.862 5.46578 43.1208 5.72459 43.1208 6.04384V18.8696Z" fill="#3F454A"/>
<path d="M87.0512 19.827C86.732 19.827 86.4731 19.5682 86.4731 19.2489V2.9162C86.4731 2.59694 86.732 2.33813 87.0512 2.33813H88.8421C89.1614 2.33813 89.4202 2.59694 89.4202 2.9162V9.07384C89.4202 9.11595 89.4543 9.15009 89.4964 9.15009C89.5239 9.15009 89.5494 9.13505 89.5631 9.11121C90.3619 7.7239 91.6461 7.02437 93.3334 7.02437C96.7635 7.02437 99.2033 9.85061 99.2033 13.5948C99.2033 17.3389 96.7635 20.1652 93.3334 20.1652C91.6461 20.1652 90.3619 19.4656 89.5631 18.0783C89.5494 18.0545 89.5239 18.0394 89.4964 18.0394C89.4543 18.0394 89.4202 18.0736 89.4202 18.1157V19.2489C89.4202 19.5682 89.1614 19.827 88.8421 19.827H87.0512ZM92.7537 17.4355C94.7948 17.4235 96.208 15.8292 96.208 13.5948C96.208 11.3603 94.7948 9.76606 92.7537 9.75398C90.7729 9.76606 89.3356 11.3362 89.3235 13.5948C89.3356 15.8533 90.7729 17.4235 92.7537 17.4355Z" fill="#3F454A"/>
<path d="M83.5829 7.36255C83.9022 7.36255 84.161 7.62136 84.161 7.94061V19.2489C84.161 19.5682 83.9022 19.827 83.5829 19.827H81.792C81.4728 19.827 81.214 19.5682 81.214 19.2489V18.036C81.214 18.0112 81.1939 17.9911 81.1691 17.9911C81.1522 17.9911 81.1367 18.0007 81.129 18.0158C80.4482 19.342 79.0774 20.1652 77.3249 20.1652C74.4987 20.1652 72.8923 18.1361 72.9044 14.8267V7.94061C72.9044 7.62136 73.1632 7.36255 73.4824 7.36255H75.2975C75.6167 7.36255 75.8755 7.62136 75.8755 7.94061V14.3436C75.8514 16.3244 76.7451 17.4235 78.3153 17.4355C79.8613 17.4235 81.2019 16.3244 81.214 13.8363V7.94061C81.214 7.62136 81.4728 7.36255 81.792 7.36255H83.5829Z" fill="#3F454A"/>
<path d="M68.2231 19.827C67.9039 19.827 67.6451 19.5682 67.6451 19.2489V2.9162C67.6451 2.59694 67.9039 2.33813 68.2231 2.33813H70.014C70.3333 2.33813 70.5921 2.59694 70.5921 2.9162V19.2489C70.5921 19.5682 70.3333 19.827 70.014 19.827H68.2231Z" fill="#3F454A"/>
<path d="M58.1101 20.1651C53.1219 20.1651 49.2811 16.2035 49.269 11.0825C49.2811 5.96144 53.1219 1.99988 58.1101 1.99988C60.9586 1.99988 63.4322 3.3119 64.9896 5.39452C65.1862 5.65753 65.0968 6.02745 64.8136 6.19373L63.1775 7.15441C62.9104 7.31123 62.5695 7.22735 62.3769 6.98485C61.3674 5.71433 59.846 4.93359 58.1101 4.92274C54.8853 4.93482 52.3972 7.61612 52.4093 11.0825C52.3972 14.5488 54.8853 17.2301 58.1101 17.2422C59.846 17.2314 61.3674 16.4506 62.3769 15.1801C62.5695 14.9376 62.9104 14.8537 63.1775 15.0105L64.8136 15.9712C65.0968 16.1375 65.1862 16.5074 64.9896 16.7704C63.4322 18.8531 60.9586 20.1651 58.1101 20.1651Z" fill="#3F454A"/>
<ellipse cx="12.2931" cy="11.791" rx="11.791" ry="4.59299" transform="rotate(-90 12.2931 11.791)" fill="url(#paint0_linear_284_24924)"/>
<ellipse cx="12.7035" cy="11.5336" rx="11.791" ry="4.59299" transform="rotate(-35 12.7035 11.5336)" fill="url(#paint1_linear_284_24924)"/>
<ellipse cx="11.791" cy="4.59299" rx="11.791" ry="4.59299" transform="matrix(0.819152 0.573576 0.573576 -0.819152 6.10352e-05 8.79028)" fill="url(#paint2_linear_284_24924)"/>
<defs>
<linearGradient id="paint0_linear_284_24924" x1="12.2931" y1="7.19803" x2="12.2931" y2="16.384" gradientUnits="userSpaceOnUse">
<stop stop-color="#0092FF" stop-opacity="0.1"/>
<stop offset="1" stop-color="#002FFF" stop-opacity="0.7"/>
</linearGradient>
<linearGradient id="paint1_linear_284_24924" x1="12.7035" y1="6.94062" x2="12.7035" y2="16.1266" gradientUnits="userSpaceOnUse">
<stop stop-color="#0092FF" stop-opacity="0.1"/>
<stop offset="1" stop-color="#002FFF" stop-opacity="0.7"/>
</linearGradient>
<linearGradient id="paint2_linear_284_24924" x1="11.791" y1="0" x2="11.791" y2="9.18599" gradientUnits="userSpaceOnUse">
<stop stop-color="#0092FF" stop-opacity="0.1"/>
<stop offset="1" stop-color="#002FFF" stop-opacity="0.7"/>
</linearGradient>
</defs>
</svg>
